<?xml version="1.0" encoding="utf-8"?>
<!-- Generator: Adobe Illustrator 23.0.1, SVG Export Plug-In . SVG Version: 6.00 Build 0)  -->
<svg version="1.1" xmlns="http://www.w3.org/2000/svg" xmlns:xlink="http://www.w3.org/1999/xlink" x="0px" y="0px"
	 viewBox="0 0 4182.86 480" style="enable-background:new 0 0 4182.86 480;" xml:space="preserve">
<style type="text/css">
	.st0{fill:#FFFFFF;stroke:#FFFFFF;stroke-miterlimit:10;}
	.st1{fill:none;stroke:#ED2B26;stroke-width:6;stroke-linecap:round;stroke-miterlimit:10;stroke-dasharray:28,20;}
	.st2{fill:#EE2724;stroke:#EE2724;stroke-miterlimit:10;}
</style>
<g id="Mountain">
	<path d="M11.61,479.84L128.7,310.17c0,0,130.49-44.36,140.93-55.97c10.45-11.61,153.75-135.79,153.75-135.79
		s105.84,98.65,111.64,98.65l184.51,93.11l127.08,169.67H11.61z"/>
</g>
<g id="Peak">
	<path class="st0" d="M332.47,214.87l51.51-13.54c0,0,29.92,9.48,33.88,11.54c3.97,2.06,87.63,2,87.63,2l-79.05-81.11L332.47,214.87
		z"/>
</g>
<g id="path">
	<path class="st1" d="M634.22,470.19c22.05-81.24-520.42-35.18-525.76-73.12c-9.9-70.35,565.98-36.09,565.06-71.68
		s-321.28-20.49-303.31-66.54c12.38-31.72,39.24-81.61,39.24-81.61"/>
</g>
<g id="Pin">
	<path class="st2" d="M454.7,93.57l-23.17,48.45c24.97,2.44,32.72,9.2,32.72,14.81c0,4.97-9.91,14.51-39.89,14.51h-0.49
		c-29.98,0-39.89-9.54-39.89-14.51c0-5.61,7.76-12.37,32.72-14.81l-23.17-48.45c-2.8-5.69-5.76-10.98-5.76-21.07
		c0-20.07,16.27-36.35,36.35-36.35c20.07,0,36.35,16.27,36.35,36.35C460.47,83.32,456.17,90.35,454.7,93.57z M424.12,49.28
		c-13.46,0-24.37,10.91-24.37,24.37s10.91,24.37,24.37,24.37s24.37-10.91,24.37-24.37S437.58,49.28,424.12,49.28z M424.12,157.25
		l-3.81-7.81c-0.1-0.2-0.3-0.32-0.52-0.3c-10.48,0.8-16.82,4.38-16.82,7.23c0,4.08,8.07,8.18,21.15,8.18s21.05-4.09,21.05-8.18
		c0-2.95-6.22-6.49-16.77-7.25c-0.2-0.01-0.39,0.09-0.47,0.27L424.12,157.25z"/>
</g>
<g id="Words">
	<g>
		<path d="M1116.06,320.97l44.49-9.49c5.33,25.19,25.81,37.79,61.43,37.79c16.26,0,28.76-3.23,37.51-9.68
			c8.75-6.45,13.12-14.46,13.12-24.01c0-6.95-1.99-13.37-5.96-19.27c-3.97-5.89-12.47-10.52-25.5-13.87l-48.58-12.66
			c-16.63-4.34-28.92-9.28-36.86-14.8c-7.94-5.52-14.3-13.31-19.08-23.36c-4.78-10.05-7.17-20.78-7.17-32.2
			c0-22.71,8.44-40.92,25.32-54.63c16.88-13.71,38.47-20.57,64.78-20.57c21.84,0,41.35,4.78,58.54,14.33
			c17.19,9.56,28.14,23.08,32.85,40.58l-43.56,10.8c-6.7-19.23-22.34-28.85-46.91-28.85c-14.27,0-25.16,2.98-32.67,8.94
			s-11.26,13.53-11.26,22.71c0,14.52,11.79,24.7,35.37,30.53l43.19,10.8c26.18,6.58,43.74,16.29,52.68,29.13
			c8.94,12.84,13.4,27.02,13.4,42.54c0,24.94-9.4,44.58-28.2,58.92c-18.8,14.33-43.16,21.5-73.06,21.5
			c-25.19,0-47.25-5.27-66.17-15.82C1134.83,359.75,1122.26,343.31,1116.06,320.97z"/>
		<path d="M1558.34,382.21h-48.96l-20.29-60.5h-97.73l-19.92,60.5h-39.09l84.32-254.09h56.4L1558.34,382.21z M1476.81,285.05
			l-37.04-113.36l-37.04,113.36H1476.81z"/>
		<path d="M1786.93,382.21h-48.4l-39.46-104.43h-64.41v104.43h-45.79V128.12h110.2c30.65,0,53.17,6.92,67.57,20.76
			c14.39,13.84,21.59,31.74,21.59,53.7c0,32.64-15.26,55.1-45.79,67.38L1786.93,382.21z M1634.66,241.11h56.96
			c16.5,0,28.79-3.47,36.86-10.42c8.07-6.95,12.1-16.5,12.1-28.67c0-11.17-3.97-20.2-11.91-27.08
			c-7.94-6.89-19.05-10.33-33.32-10.33h-60.68V241.11z"/>
		<path d="M2071.18,293.98l42.44,4.65c-2.73,25.44-12.56,46.38-29.5,62.82c-16.94,16.44-39.18,24.67-66.73,24.67
			c-23.21,0-42.04-5.83-56.5-17.5c-14.46-11.66-25.59-27.49-33.41-47.47c-7.82-19.98-11.73-42.01-11.73-66.08
			c0-38.72,9.18-70.21,27.55-94.47c18.36-24.26,43.62-36.39,75.76-36.39c25.19,0,46.16,7.76,62.92,23.27
			c16.75,15.51,27.3,37.73,31.64,66.64l-42.44,4.47c-7.82-38.35-25.07-57.52-51.75-57.52c-17.13,0-30.43,7.98-39.93,23.92
			c-9.49,15.95-14.24,39.06-14.24,69.34c0,30.78,5.09,54.01,15.26,69.71c10.17,15.7,23.64,23.55,40.39,23.55
			c13.4,0,24.82-5.27,34.25-15.82C2064.6,321.22,2069.93,308.62,2071.18,293.98z"/>
		<path d="M2221.02,386.12c-27.8,0-49.02-9.99-63.66-29.97c-14.64-19.98-21.97-42.87-21.97-68.69c0-27.8,8.1-50.94,24.29-69.43
			c16.2-18.49,37.57-27.74,64.13-27.74c25.19,0,45.89,9,62.08,26.99c16.2,18,24.29,41.39,24.29,70.18
			c0,29.66-8.41,53.52-25.22,71.57C2268.15,377.09,2246.83,386.12,2221.02,386.12z M2222.51,351.13c28.54,0,42.81-21.28,42.81-63.85
			c0-19.23-3.41-34.41-10.24-45.51c-6.83-11.1-17.31-16.66-31.46-16.66c-14.64,0-25.5,5.74-32.58,17.22
			c-7.07,11.48-10.61,26.71-10.61,45.7c0,20.48,3.75,36.11,11.26,46.91S2209.48,351.13,2222.51,351.13z"/>
		<path d="M2422.62,386.12c-27.8,0-49.02-9.99-63.66-29.97c-14.64-19.98-21.97-42.87-21.97-68.69c0-27.8,8.1-50.94,24.29-69.43
			c16.2-18.49,37.57-27.74,64.13-27.74c25.19,0,45.89,9,62.08,26.99c16.2,18,24.29,41.39,24.29,70.18
			c0,29.66-8.41,53.52-25.22,71.57C2469.74,377.09,2448.43,386.12,2422.62,386.12z M2424.11,351.13c28.54,0,42.81-21.28,42.81-63.85
			c0-19.23-3.41-34.41-10.24-45.51c-6.83-11.1-17.31-16.66-31.46-16.66c-14.64,0-25.5,5.74-32.58,17.22
			c-7.07,11.48-10.61,26.71-10.61,45.7c0,20.48,3.75,36.11,11.26,46.91C2400.81,345.73,2411.08,351.13,2424.11,351.13z"/>
		<path d="M2593.13,382.21h-42.44V194.21h38.35v44.86c5.46-17.5,12.97-30.28,22.52-38.35c9.55-8.07,19.36-12.1,29.41-12.1
			c1.36,0,3.23,0.06,5.58,0.19v45.61c-21.59,0-35.9,6.89-42.91,20.66c-7.01,13.77-10.52,27.12-10.52,40.02V382.21z"/>
		<path d="M2831.58,382.21h-39.65v-37.97c-10.92,27.92-29.41,41.88-55.47,41.88c-23.08,0-40.77-9.62-53.05-28.85
			c-12.29-19.23-18.43-43.12-18.43-71.67c0-26.55,6.39-49.7,19.17-69.43c12.78-19.73,30.96-29.6,54.54-29.6
			c24.2,0,41.01,11.05,50.45,33.13v-91.58h42.44V382.21z M2789.14,271.27c0-15.26-3.63-27.15-10.89-35.65
			c-7.26-8.5-16.66-12.75-28.2-12.75c-12.54,0-22.34,5.46-29.41,16.38c-7.07,10.92-10.61,27.24-10.61,48.96
			c0,41.95,13.15,62.92,39.46,62.92c10.42,0,19.64-4.5,27.64-13.5c8.01-9,12.01-20.5,12.01-34.53V271.27z"/>
		<path d="M2924.66,172.24h-42.44v-44.12h42.44V172.24z M2924.66,382.21h-42.44V194.21h42.44V382.21z"/>
		<path d="M3131.28,382.21h-42.44V264.76c0-12.41-2.86-21.75-8.56-28.02c-5.71-6.26-12.6-9.4-20.66-9.4
			c-11.05,0-20.73,4.84-29.04,14.52c-8.32,9.68-12.47,24.26-12.47,43.74v96.61h-42.44V194.21h38.72v43.56
			c13.52-31.64,32.51-47.47,56.96-47.47c16.5,0,30.62,5.21,42.35,15.64c11.73,10.42,17.59,28.73,17.59,54.91V382.21z"/>
		<path d="M3342.93,382.21h-40.39c-3.6-11.42-5.77-24.07-6.52-37.97c-11.29,27.92-32.51,41.88-63.66,41.88
			c-18.74,0-33.78-5.49-45.14-16.47c-11.35-10.98-17.03-24.79-17.03-41.42c0-43.19,37.91-64.78,113.74-64.78
			c2.98,0,7.01,0.06,12.1,0.19v-14.15c0-19.48-13.28-29.22-39.84-29.22c-25.81,0-40.46,9.74-43.93,29.22l-36.11-5.4
			c1.98-15.64,10.05-28.51,24.2-38.63c14.15-10.11,34.62-15.17,61.43-15.17c14.52,0,26.37,1.21,35.55,3.63
			c9.18,2.42,16.94,6.52,23.27,12.29c6.33,5.77,10.7,12.04,13.12,18.8c2.42,6.77,3.63,18.21,3.63,34.34v84.88
			C3337.34,356.53,3339.2,369.18,3342.93,382.21z M3296.02,286.53c-54.85,0-82.28,13.09-82.28,39.28c0,7.82,2.76,14.49,8.28,20.01
			c5.52,5.52,13.87,8.28,25.04,8.28c16.13,0,28.32-5.12,36.58-15.36c8.25-10.24,12.38-21.87,12.38-34.9V286.53z"/>
		<path d="M3475.28,349.08v33.13c-12.66,2.73-22.46,4.1-29.41,4.1c-11.42,0-21.22-2.27-29.41-6.79
			c-8.19-4.53-14.18-10.73-17.96-18.61c-3.79-7.88-5.68-20.01-5.68-36.39v-97.35h-23.45v-32.95h25.87l3.91-48.96l34.81-3.16v52.12
			h37.79v32.95h-37.79v91.77c0,11.79,2.14,19.82,6.42,24.11c4.28,4.28,12.38,6.42,24.29,6.42
			C3468.02,349.45,3471.55,349.33,3475.28,349.08z"/>
		<path d="M3577.66,386.12c-27.8,0-49.02-9.99-63.66-29.97c-14.64-19.98-21.97-42.87-21.97-68.69c0-27.8,8.1-50.94,24.29-69.43
			c16.2-18.49,37.57-27.74,64.13-27.74c25.19,0,45.89,9,62.08,26.99c16.2,18,24.29,41.39,24.29,70.18
			c0,29.66-8.41,53.52-25.22,71.57C3624.78,377.09,3603.47,386.12,3577.66,386.12z M3579.15,351.13c28.54,0,42.81-21.28,42.81-63.85
			c0-19.23-3.41-34.41-10.24-45.51c-6.83-11.1-17.31-16.66-31.46-16.66c-14.64,0-25.5,5.74-32.58,17.22
			c-7.07,11.48-10.61,26.71-10.61,45.7c0,20.48,3.75,36.11,11.26,46.91C3555.85,345.73,3566.12,351.13,3579.15,351.13z"/>
		<path d="M3748.17,382.21h-42.44V194.21h38.35v44.86c5.46-17.5,12.97-30.28,22.52-38.35c9.55-8.07,19.36-12.1,29.41-12.1
			c1.36,0,3.23,0.06,5.58,0.19v45.61c-21.59,0-35.9,6.89-42.91,20.66c-7.01,13.77-10.52,27.12-10.52,40.02V382.21z"/>
	</g>
</g>
</svg>
